<?xml version="1.0" encoding="UTF-8"?>
<svg id="Layer_1" xmlns="http://www.w3.org/2000/svg" version="1.1" viewBox="0 0 281.11 331.58" preserveAspectRatio="none">
  <!-- Generator: Adobe Illustrator 30.1.0, SVG Export Plug-In . SVG Version: 2.1.1 Build 136)  -->
  <path d="M274.14,280.07l4.45,20.97c.92,4.33.89,8.48,2.15,12.8.37,1.29.43,2.81.34,4.08l-.83,11.39c-.12,1.71-2.19,2.33-4.35,2.27l-15.83-.43-38.4-.19h-61.92l-30.99-.73-10.05.21-10.5.04h-8.44l-13.15.05-13.61-.41c-7.6-.23-14.97-.99-22.56-.42-3.61.27-6.97.23-10.57.07l-8.99-.4-19.72-.64c-2.93-.09-2.3-2.45-2.36-3.66l-.93-17.12-.7-7.71c-.75-8.25-.2-16.31-.03-24.64l.44-21.24.24-8.99-.51-10.67c-.41-8.65-.57-16.94-.72-25.59l-.22-12.82c-.09-5.12-.07-9.99-.31-15.06l-.7-14.45c-.12-2.5.07-4.99-.26-7.46l-1.05-7.82c-.47-3.51-.9-9.73-.58-13.15.48-5.06.55-9.88.45-14.91-.03-1.69.58-3.61.3-5.38-1.18-7.55-1.49-14.8-1.82-22.39l-.65-15.08c-.35-8.04.53-12.03-.53-20.26C-.78,44.82-.1,29.44,1.67,13.9c.32-2.84.09-5.73,2.76-7.98,5.05-.22,10.33-.48,15.45-.45,9.84.07,19.14-.2,28.95-.61l26.07-1.09c9.64-.4,18.89-.09,28.57-.19l21.03-.2,11.56-.5c9.79-.43,22.91-.49,32.01-1.45,2.93-.31,5.87-.39,8.81-.52L195.48.05c3.79-.17,7.68.13,11.42.24l12.63.37c2.35.07,4.88.26,7.24.36l10.22.44,18.43.9c5.57.27,18.68-1.28,17.98,2.59-1.17,6.44,1.13,9.83,1.23,15.4l.33,18.81c.06,3-.03,5.77-.17,8.79l-.46,10.01-.86,8.9-1.59,13.84-1.02,14.76c-.35,5.17.26,10.25,0,15.46l-.51,10.7.3,18.12.27,8.53.82,12.13,1.15,14.86.18,23.88.77,10.67-.82,11.54c-.45,6.32.85,12.45,1.52,18.77.26,2.45-.18,4.91-.1,7.38l.37,11.39c.2,6.06-1.51,17.36-.69,21.2h0s.02-.02.02-.02ZM270.17,242.66c.25-3.6-.77-7-1.05-10.42l-.76-9.29.86-14.92-.79-19.91-.02-10.3c-.01-5.89-.85-11.55-1.24-17.42l-.72-10.69-.48-12.1c-.22-5.64-.58-11.04-.18-16.72.4-5.77.51-11.27.3-17.05-.15-4.23.12-8.26.44-12.47l.86-11.28,1.57-13.96.68-6.39.42-7.83.39-8.91v-6.75l-.23-7.45c-.16-5.33.12-7.45-.85-13.18-.58-3.42-1.17-6.48-.58-10.12l-17.08-.17c-2.83-.03-5.61-.6-8.41-.67l-11.51-.26c-3.03-.07-5.94-.62-8.99-.65l-8.54-.09-9.29-.49-8.02-.1c-6.41-.08-12.76.5-19.27.78-3.01.13-6.04.17-8.98.44-4.79.43-9.32.88-14.21,1.06l-13.13.47-14.71.46c-4.1.13-7.98.17-12.1.22l-13.7.18-18.4-.04-8.92.22-17.2.66-25.35.95c-3.42.13-6.74-.17-10.06-.11l-13.62.25c-.99,2.02-.93,4.14-1.1,6.28l-1.38,18.06c-.47,6.12.14,20.95.97,27.14,1.25,9.39.12,10.87.51,19.55l.67,15.37,1.55,23.38-.03,11.55c-.01,2.83-.32,5.58-.53,8.42-.51,6.93,1.11,13.59,1.41,20.55l.83,19.6c.33,7.71.57,15.02.56,22.74l-.02,14.6c0,1.72-.12,3.63,0,5.35l1.39,21.29-.21,10.68-.19,6.76-.53,20.26c-.2,7.46.04,14.56.49,21.97l1.43,23.55,22,.85c2.49.09,4.9-.1,7.42.39l10.01-.38c4.75-.18,9.38.09,14.21.29,9.89.43,19.49.79,29.39.72l8.97-.06,8.38.04,9.52-.21c7.99-.18,15.59.04,23.58.41,8.02.37,15.69.21,23.66.16l7.9-.05,17.36-.08,22.11.25,21.51.11,6.84.08c9.88.11,19.28-.02,29.35.54.41-4.38.97-8.64.77-12.99-.15-3.24-1.26-6.37-1.7-9.59.12-4.1-.91-7.87-1.95-11.86-2.48-9.57-3.36-13.98-2.68-23.72.18-2.64.74-5.13.68-7.72l-.28-10.77c-.08-3.14-.2-6.07.03-9.45h-.03Z"/>
</svg>