<?xml version="1.0" encoding="UTF-8"?>
<svg id="Layer_1" xmlns="http://www.w3.org/2000/svg" version="1.1" viewBox="0 0 1004 573"  preserveAspectRatio="none">
  <!-- Generator: Adobe Illustrator 30.1.0, SVG Export Plug-In . SVG Version: 2.1.1 Build 136)  -->
  <path d="M842.93,553.19c-11.52-1.63-45.42,1.77-63.59,1.38l-34.18-.74c-7.41-.16-14.8.73-22.15.2-18.95-1.36-37.35-3.94-56.3-3.05l-34.62,1.63-32-1.53-71.63-.37-44.58-2.31-36.38-1.63-25.6-.55-54.35-.61-32.1,1.02c-15.63.5-30.85-.72-46.37-.01l-44.29,2.03-41.51,3.18-26.7,1.71-30.03.92c-9.05.28-17.35.46-26.36.35l-56.44-.67c-16.72-.2-26.88-4.8-46.2-2.46-11.6,1.4-6.96-24.82-7.77-35.96l-2.69-36.85-1.32-20.44c-.31-4.71-.87-9.77-1.08-14.47l-1.12-25.27c-.33-7.49-1.23-15.27-.71-22.84l2.54-37.19c.4-5.87.64-11.77,1.57-17.62,2.87-18.19,3.06-44.43,4.34-64.01l1.51-23.11.6-42.07c.28-19.35-.65-37.85.56-57.14l3.26-52.14c1.23-19.62,2.06-38.22,1.84-57.9-.11-10.24.68-20.79,1.34-30.9,6.77-5.33,15.42-4.86,23.95-5.51,46.63-3.55,92.75-4.9,139.29-.89,24.7,2.12,36.68.36,60.79,1.06l45.23,1.31c22.78.66,44.53,1.29,67.17,3.64,5.3.55,11.06-.67,16.13-.61,15.1.2,29.55.05,44.74-.91,10.26-.65,28.91.22,39.44,1.16l23.46,2.1c7.4.66,14.87.27,22.38.51l43.34,1.4c15.21.49,29.83.45,45.18.62l38.47.44c25.96.3,50.82.62,76.77,1.44l32.02,1.01,26.96-.48,63.71-.89c25-.35,49.16-1.44,73.92.06l23.14,1.41,51.37,1.86c3.64.13,10.71-1.12,10.99,4.73l1.93,39.45,1.19,17.97c.48,7.21.62,13.92-.2,21.14-1.71,15.18.56,29.92,1.25,45.11l1.23,27.23-.14,26.29-.02,16.88-.12,21.01-.62,20.09,2.23,61.99-.03,123.84.58,76.8,1.29,31.65c.18,4.31-1.68,8.44-6.82,8.69l-34.16,1.66c-3.81.19-8.35.07-12.23-.68-12.97-2.51-25.42-2.46-38.41-4.3l-62.92-8.89.03.03ZM730.7,545.21c10.15-.47,18.94-.22,28.36-.06l32.31.56c7.77.13,15.26-.99,23.17-1.36,29.23-1.36,42.45.39,71.16,5.36,11.97,2.07,23.27,4.14,35.57,3.89,9.68.88,19.06,3.11,28.78,3.41,13.06.41,25.85-.71,38.98-1.54-1.68-20.16-1.27-38.95-1.61-58.71l-.24-13.67-.32-43.03-.75-44.22.24-34.72.14-15.8c.14-15.94.61-31.28-.49-47.33-1.1-15.99-1.76-31.19-1.22-47.16l.64-19.04-.11-16.76.19-17.93c.21-19.81-.87-38.99-2.15-58.78-.62-9.65-1.43-18.92-.88-28.41l1.15-20.01c-1.47-5.04-.89-9.86-1.17-14.83l-2.55-43.99-70.66-2.87c-22.23-.9-43.54-1.38-65.92-.98l-60.78,1.06-20.27.37-32.03.42-63.88-2.79c-5.15-.23-10.89,0-16.04.01l-43.79.03c-23.15.02-45.09-.47-68.21-1.12l-58.8-1.66c-20.87-.59-40.85-3.84-61.65-2.82-8.52.42-16.77,1.04-25.25,1.06l-34.66.06-70.15-3.09-46.12-1.34c-26.06-.76-30.48,1.49-58.66-1.01-18.58-1.65-63.06-2.87-81.42-1.93l-54.18,2.76c-6.41.33-12.77.2-18.84,2.19l-.74,27.24c-.18,6.64.72,13.28.33,20.13l-2.86,50.71-1.97,34.4-.67,17.84.12,36.8-.53,27.4c-.16,8.24-.28,16-.66,24.2l-1.37,29.41-1.42,26.27c-.53,9.76-1.87,18.82-3.17,28.41-.8,5.87-.94,11.94-1.32,17.96-.82,13.02-2.58,25.72-2.33,38.55l.31,16.05,1.46,18.59.26,17.09c.09,6.09,1.75,11.91,1.95,17.97l.77,23.03c.19,5.6,1.91,11.16,2,16.82l.51,34.17c10.9-1.18,20.08.01,30.35,1.17,17.18,1.94,23.53,1.38,39.53,1.7l22.35.45h20.24l26.72-.78,23.48-.83,19.16-1.37,41.89-3.14,33.84-1.72c12.64-.64,24.72-1.19,37.41-.88,17.33.42,33.83.2,51.14-.61,17.04-.79,33.24-.07,50.15.37l36.31.96,32.06,1.44c17.61.79,34.57,2.47,52.25,2.49l30.89.04,59.74,1.57,44.77-1.73,27.87,1.51c10.27.56,20.46,2.61,31.27,2.11h.02Z"/>
</svg>