<?xml version="1.0" encoding="UTF-8"?>
<svg id="Layer_1" data-name="Layer 1" xmlns="http://www.w3.org/2000/svg" viewBox="0 0 264.68 47.89">
  <defs>
    <style>
      .cls-1 {
        fill: #111;
      }

      .cls-2 {
        fill: #d54f49;
      }
    </style>
  </defs>
  <g>
    <path class="cls-1" d="M168.88,42.58l-5.06-.13c-.85-.34-.61-1.94-.88-2.68l-2.32-6.48c-.68-1.9-.93-3.76-1.89-5.78l-1.21,2.65c-.67,1.46-1.01,2.97-1.97,4.3.09-.12-2.4,5.81-2.54,6.28-.18.6-.3,1.47-1.04,1.63-.31.07-5.41.23-5.34-1.01.15-2.55-.57-4.75-.97-7.22-.78-4.93-1.28-9.81-2.67-14.62-.39-1.34-.82-2.56-1.07-3.94-.43-2.44-.86-4.8-1.5-7.23-.11-.43.07-.84.35-1s.64-.11,1.05-.05c1.36.19,2.72-.89,3.85-.45.34.14.29.42.4.85,1.92,7.62,3.19,15.2,4.64,23.2,1.88-3.72,2.54-7.45,3.65-11.16.42-1.4.54-2.79,1.47-4.02l4.09-.21c.55-.03,1.36.21,1.65.78,1.92,3.86,3.42,7.8,4.48,12.05.65-1.82.62-3.47,1.03-5.22l3.02-13.03c.27-1.15.38-2.4,1.27-3.24.55-.52,1.3.12,2.05.13.97,0,3.03-.04,3.33,1.18.11,2.25-.85,4.48-1.29,6.66l-1.92,9.37-3.37,15.49c-.19.89-.56,2.3-1.29,2.91ZM172.35,20.3l1.76-7.85c.25-1.1.8-2.4.52-3.49-.5-.35-1.75-.37-2.23.04l-2.99,13.12c-1.01,4.43-1.49,8.73-2.06,13.22-.06.49-1.17.5-1.38.24s-.75-.56-.83-1.13c-.7-5.36-2.1-10.5-4.46-15.41-.18-.38-.13-1.15-.57-1.3-1.04-.36-2.16-.09-3.27.21-1.22,5.04-2.32,9.01-4.37,13.78-.38.88-1.15,3.7-2.23,3.58-.26-.03-.83-.22-.9-.63l-2.1-12.51-.88-4.16c-.65-3.07-1.15-6.04-1.92-9.09-.59-.06-1.39.05-1.75.58.62,1.81.63,3.89,1.17,5.76,1.79,6.25,2.97,12.4,3.72,18.84.25,2.15,1.23,4.04.93,6.22l2.42.23,2.8-6.56c1.29-3.03,3.73-7.68,4.17-10.9.07-.55.99-.63,1.32-.5.46.18.63.74.7,1.3.24,2.03,1.21,3.79,1.7,5.73.6,2.34,1.19,4.55,2.12,6.79.33.78.75,1.55.9,2.37l.35,1.87c.97.13,1.97.21,2.87.12.78-2.5,1.09-4.88,1.64-7.32l1.65-7.26c.44-1.96.72-3.83,1.19-5.9Z"/>
    <path class="cls-1" d="M213.83,42.3c-.61.74-4.41.46-4.66.37-.41-.13-4-7.34-4.55-8.27-1.95-3.32-3.89-6.43-5.36-9.99-.54-1.3-1.07-2.56-1.92-3.83-.6,2.49.09,4.75,0,7.16l-.29,7.9c-.07,1.77,1.02,7.28-.9,7.17-3.07-.18-4.65.27-4.61-1.64l.16-7.94c.05-2.59-.26-5.04-.16-7.65.05-1.35-.11-2.72-.17-4.09-.16-4.13-.38-8.09-.12-12.22.13-2.08,1.43-.99,5.72-2.02.59-.14,1.09.02,1.41.53,1.12,1.83,1.94,3.74,2.61,5.79.54,1.67,1.6,3.13,2.02,4.83.48,1.95,1.21,3.52,2.31,5.18.87,1.32,1.2,2.94,2.64,3.96l.18-10.85-.08-8.8c1.87-.88,4.13-.98,6.15-.34.59,1.54.51,9.91.32,11.3-.13.98-.44,1.86-.41,2.91l.34,10.26c.06,1.94.25,3.71.08,5.64-.13,1.5.35,3.36-.7,4.64ZM195.46,40.38c-.35-3.86.18-7.34.02-10.97l-.28-6.22.18-5.29c.02-.72,1.17-2.14,1.8-1.51.9,1.25,1.6,2.75,2.28,4.17l3.56,7.47,3.65,6.22,1.45,2.86c.64,1.25,1.3,2.53,2.18,3.6.44.52,1.68.21,2.33,0,.09-2.1.26-4.15.1-6.27-.3-4-.08-6.47-.46-10.76-.17-1.96.21-3.66.41-5.55.33-3.08-.12-6.11.03-9.2-.86-.07-1.96-.2-2.53.22-.64,1.07-.21,2.48-.22,3.65v3.73c-.03,3.18-.04,6.31-.12,9.52-.04,1.65-.51,3.11-.84,4.7-.1.5-.16,1.08-.73,1.11-1.23.08-.9-1.68-2.23-3.47-.98-1.33-1.7-2.72-2.55-4.15-.77-1.29-1.67-2.45-1.98-3.98-.39-1.87-1.3-3.43-2.01-5.17-.82-2.01-1.34-4.06-2.54-6-1.23.04-2.48.36-3.74.62-.4,1.55-.24,3.03-.19,4.6l.36,11.25c.08,2.48.27,4.77.21,7.24l-.18,7.88c.07.56,2.12.6,2.04-.3Z"/>
    <path class="cls-1" d="M225,36.63c2.63-.39,5.64.1,8.47.43.5,1.77.84,4.03.16,5.79-.31.79-1.62.15-2.18.18-2.52.11-4.95-.26-7.42-.34-1.58-.05-3.12.75-4.75.4-.57-.12-.94-1.08-.93-1.7l.11-10.17c.04-3.61-.27-7.04-.26-10.66l.05-12.41c.85-.51,1.56,0,2.41,0,2.48-.02,4.92-.08,7.37-.37,1.51-.18,5.46-1.4,5.72,1.12.18,1.82.18,3.67-.31,5.45l-8.79,1.38v6.76c2-.07,3.7-.36,5.52-.08,2.05.31.23,4.84,0,6.42-2.05.01-3.88-.05-5.81.42-.16.68-.11,1.32-.03,1.98l.69,5.4ZM222.83,34.18c-.22-1.26-.75-5.54-.08-6.37.93-1.17,4.05-.05,5.86-.97.43-.69.5-1.87.52-2.7-1.93.11-3.57.17-5.36.15-.63,0-.95-.45-1.05-1.09-.33-2.16-.11-4.29-.07-6.45.02-.85-.2-1.66.07-2.53,3.03-.9,6.39-.53,9.2-1.57.18-1.14-.01-2.22-.03-3.31-.95-.39-1.75.06-2.64.2-3.01.46-5.94.46-9.06.49-.2,4.91-.19,9.58.08,14.38.15,2.71.01,5.25.02,7.94v8.89s3.93-.36,3.93-.36c-.61.06,7.27.79,7.7.54.13-.9.17-1.75-.02-2.67l-3.65-.39c-1.32-.14-2.54.06-3.81.4-1.74.47-1.21-2.21-1.62-4.58Z"/>
    <path class="cls-1" d="M186.29,42.68c-.71.56-4.35.44-5,.26-1.13-.32-1.09-1.94-1.08-2.88l.06-7.44.07-7.78c.03-2.98-.23-5.85-.2-8.83.02-2.61.26-5.14-.19-7.67.62-.84,5.7-1.3,5.82-.47,1.04,4.37,0,9.27.62,14.26.3,2.43.24,4.81.42,7.29.3,4.14.37,8.08-.34,12.2-.06.34.09.85-.18,1.06ZM184.54,41.08c.53-3.31.65-5.17.5-8.19-.21-4.14-.29-8.18-.72-12.32-.51-4.9.4-6.62-.18-11.25-.54-.17-1.84-.26-1.99.26-.4,1.61,0,3.22-.08,4.82-.18,3.51.14,6.92.19,10.45.07,5.55-.21,10.72.04,16.26.73.22,1.55.24,2.24-.03Z"/>
    <path class="cls-1" d="M254.61,47.84c-1.83.26-3.13-.76-4.75-.91-7.65-.7-6.59-4.64-7.06-5.55-1.87-3.63-.42-4.83-.49-8.6-.02-1.38.31-2.52.45-3.86l1.49-14.7c.3-3,.42-6.55,1.93-9.22-.32-1.1-.15-2.19.52-3,.84-1.01,2-1.21,3.24-1.51,4.38-1.07,9.09-.42,12.75,2.21,1.16.84,1.77,2.19,1.01,3.5,1.23,1.83,1.01,3.74.87,5.72-.17,2.63-.33,5.11-.67,7.72-.67,5.14-.4,8.31-1,13.14-.26,2.09-.68,9.59-1.86,10.89-1.67,1.83-1.49,3.48-6.43,4.18ZM260.66,7.3c1.11-.18,2.9-1.91,1.91-2.96-2.32-2.47-6.01-3.12-9.29-2.99-1.6.06-3,.51-4.48.84-.74.16-1.3.81-1.43,1.33-.17.69.03,1.26.5,1.8,2.92,3.35,8.63,2.64,12.78,1.97ZM262.96,7.76c-1.18.67-1.86.97-2.86,1.1-2.5.34-5.01.41-7.55.21-2.21-.17-3.81-1.12-5.51-2.66-.37.94-.94,1.76-.74,2.64.57,2.5,5.13,3.78,7.42,4.18,3.01.52,6.39-.08,9.14-1.58.88-.93.64-2.94.11-3.89ZM262.35,22.16c-.12-3.81.86-4.9.75-8.87-3.91,1.59-8.04,2.1-11.97.77-1.89-.64-3.56-1.31-5.13-2.82-.54,1.93-.32,3.65-.61,5.49-.21,1.35-.6,2.54-.36,4.12,1.47-1.3,2.81-1.59,4.35-.92,1.4.61,2.81,1.14,4.13,2.04.42.29,1.71.67,1.95.13.76-1.75,1.21-3.6,2.66-4.84.64-.55,1.19-1.03,2-.95,3.82.37.8,5.6,2.23,5.85ZM244.64,41.05c3.82,2.41,9.92,3.84,14.23,2.35.54-3.29.52-6.55.82-9.86l.74-8.02c.23-2.44.61-4.86.4-7.33-.1-1.2-3.09-.33-4.23,4.76-.59,2.65-2.1,4.88-4.43,6.24-2.99,1.75-5.43-.86-7.68-3.11-.34,2.31-.7,4.44-.86,6.67l-.4,5.73c-.09,1.29.36,1.9,1.41,2.57ZM250.68,28.42c2.18-.6,3.48-2.43,4.4-4.26-.61-.62-1.28-.54-1.9-.91-1.66-.99-3.36-1.94-5.26-2.35-.71-.15-4.22,1.56-3.27,3.24.85,1.5,3.72,4.91,6.03,4.27ZM260.87,38.42c.32.99,1.01-8.83.99-7.8l.07-4.11c.03-1.5.46-2.91.1-4.31-.2.85-.08,1.61-.42,2.4.21.86-.13,1.61-.14,2.43l-.06,3.11c-.05,2.83-.72,5.55-.54,8.28ZM251.94,45.97c1.93.63,4.15.57,5.8-.76-3.16.48-5.82.13-8.65-.78-1.63-.52-3.21-.81-4.62-2.05-.37,1.11.4,1.38.96,1.79,2.1,1.55,3.12.7,6.51,1.8Z"/>
    <path class="cls-2" d="M244.64,41.05c-1.05-.66-1.5-1.28-1.41-2.57l.4-5.73c.16-2.23.51-4.37.86-6.67,2.25,2.25,4.69,4.86,7.68,3.11,2.34-1.37,3.84-3.6,4.43-6.24,1.14-5.09,4.12-5.96,4.23-4.76.21,2.47-.17,4.89-.4,7.33l-.74,8.02c-.31,3.31-.28,6.58-.82,9.86-4.31,1.48-10.4.06-14.23-2.35Z"/>
    <path class="cls-2" d="M250.68,28.42c-2.31.64-5.18-2.77-6.03-4.27-.95-1.68,2.56-3.4,3.27-3.24,1.91.41,3.6,1.36,5.26,2.35.62.37,1.29.3,1.9.91-.93,1.83-2.23,3.66-4.4,4.26Z"/>
    <path class="cls-1" d="M254.93,6.51c-1.39.7-2.97.26-4.05-.77-.62-.59-1.27-2.01-.47-2.69,1.79-1.51,4.62-.61,5.41,1.5.31.83-.09,1.56-.89,1.96ZM254.53,4.72c-.59-1.08-2.43-1.21-3.12-.54.52,1.17,2.73,1.66,3.12.54Z"/>
  </g>
  <g>
    <path class="cls-1" d="M29.25,40.84l-2.93.35c-.49.06-1.64-.02-1.81-.67l-.22-12.56c-.06-3.28.42-6.37.47-9.62l.11-7.87c0-.55-.03-1.89.55-1.93l4.29-.3c1.29-.09,2.11-.01,2.63,1.19,1.04,2.44,1.86,4.97,3.15,7.33.91,1.65,1.75,3.19,2.59,4.86l1.37,2.73c.39.78,1.09,1.32,1.4,2.3.52-.77.25-1.44.17-2.18-.25-2.37-.05-4.65.08-7.04l.5-9.08c.74-.88,4.34-1.14,5.24-.04.58.7.32,1.78.36,2.65l.5,9.34.46,9.83-.46,7.46c-.06.92.51,2.84-.46,3.37-1.51.82-3.62.42-5.26.28-.52-.36-.83-1.26-1.04-1.83-1.61-4.29-3.82-8.05-6.37-11.81-1.52-2.24-2.44-4.69-4.44-6.88l.5,8.12c.17,2.67.17,5.26.12,7.94-.87,2.7.85,3.79-1.52,4.08ZM28.76,38.67c.45-3.89.26-7.59-.03-11.42l-.48-6.24.12-3.13c.02-.51.37-.92.74-1.03.29-.08.89.03,1.16.42l4.29,6.23c.86,2.27,2.39,4.05,3.69,6.09,2.15,3.37,3.23,6.19,4.88,9.8.86.31,1.86.29,2.69.04.34-.73-.05-1.43.03-2.15.56-5.24.29-10.25,0-15.47l-.68-12.43c-.3-.3-1.47-.24-1.54.16-.3,1.83-.94,11.78-.79,13.38.2,2.11.17,4.1.01,6.22-.05.62-.09,1.12-.71,1.35-.47.17-.92-.08-1.26-.61l-2.92-4.55-2.13-4.08c-1.45-2.78-3.06-5.36-4.14-8.3-.39-1.07-.66-2.03-1.38-2.97-.92.39-2.25-.14-3.06.34-.98.72-.73,2.43-.67,3.53.12,2.21-.09,4.25-.21,6.45-.23,4.11-.31,8.08-.23,12.2l.12,6.69c.9.21,1.74.05,2.49-.52Z"/>
    <path class="cls-1" d="M129.62,41.49c-.4,1.67-4.24,1.85-5.65.77-.75-.58-1.22-1.74-1.68-2.54-.7-1.22-1.45-2.18-2.3-3.27-1.36-1.74-2.38-3.64-3.63-5.48-.83-1.23-1.22-2.7-2.52-3.63-.59.53-1.11,1.13-1.62,1.64l-1.89,1.92c-.62,1.76-.27,3.64-.1,5.44s.05,3.72.11,5.6c-.95.59-4.9.68-5.44.17-.26-.24-.53-.72-.56-1.26l-.5-11.33c-.12-2.81-.24-5.45-.24-8.28l.02-12.58c1.26-.36,6.14-1.72,6.03.63-.18,3.99-.26,7.89.12,12.09,1.88-1.33,3.13-3.04,4.84-4.39,2.63-2.07,4.99-4.19,7.32-6.59.48-.5,1.27-1.31,2.01-1.46,1.57.85,2.91,2.61,3.18,4.39.13.83-.96,1.51-1.46,1.97l-4.04,3.68-3.59,3.88c.77,1.32,2.74,4.57,3.43,5.39,2.03,2.38,3.71,4.91,5.42,7.52.98,1.5,1.92,2.81,2.28,4.66.07.34.55.64.45,1.07ZM125.29,36.44c-1.11-1.56-2.06-3.19-3.3-4.7-1.47-1.78-2.91-3.45-4.02-5.52-.42-.79-1.09-1.49-1.56-2.23-.7-1.09-.32-1.95.51-2.83l3.58-3.83c.81-.86,4.77-3.72,4.6-4.58-.04-.23-.74-1.36-1.08-1.36-.25,0-.69.2-.9.45-1.82,2.15-3.9,3.86-6.08,5.65-2.61,2.14-4.88,4.52-7.24,6.89-.36.36-.86.48-1.28.35-.36-.11-.6-.59-.65-1.1-.38-3.87-.36-9.69-.18-13.64-.74-.15-1.83-.22-2.21.24-.25,2.09,0,4.14,0,6.21l-.05,7.43c-.02,2.37.16,4.59.28,6.95l.3,5.98c.06,1.28-.27,2.51.22,3.75.85.01,1.61.16,2.57-.01-.33-1.44-.15-2.81-.3-4.23-.23-2.24-.36-4.39.18-6.61,1.54-1.33,2.83-2.81,4.13-4.32.34-.4.76-.47,1.15-.5.53-.04.61.5.97.79,1.33,1.08,1.99,2.5,2.86,3.93,1.19,1.95,2.41,3.87,3.77,5.72,1.24,1.68,2.3,3.28,3.3,5.14.46.85,2.03.7,2.69.45-.21-1.84-1.25-3.1-2.25-4.5Z"/>
    <path class="cls-1" d="M15.82,40.19c-4.54,1.83-9.42,1.28-13.01-2.07-1-.93-4.07-5.53-2.22-6.23l2.88-1.08c.82-.31,1.46.13,1.68.96.5,1.84,1.92,3.6,3.95,3.97,1.67.3,3.82-.52,4.76-1.98,1.23-1.91.33-4.76-1.59-5.71l-7.27-3.61C1.67,22.79-.85,16.89.73,13.33c1.14-2.56,3.27-5.56,6.03-6.64,5.73-2.23,11.81,1.75,13.41,7.33.2.71.78,1.28.21,1.88-.64.68-3.76,1.52-4.34,1.25-.89-.41.09-2.09-3.9-4.36-1.46-.83-2.74-.45-3.97.42-1.49,1.06-1.87,2.75-.73,4.28.65.87,1.45,1.58,2.5,2.12l3.12,1.6c2.18,1.12,3.96,2.3,5.46,4.15,1.59,1.97,2.58,3.98,2.57,6.59-.02,4.34-.63,6.37-5.27,8.24ZM19.24,32.53c.07-2.6-.79-4.54-2.45-6.38-3.04-3.36-4.69-3.02-8.94-5.73-1.35-.86-2.28-2.46-2.77-3.87-1.02-2.91,1.93-4.88,4.2-5.75,2.21-.2,4.11.61,5.65,2.09.73.7,1.44,1.22,1.9,2.23.18.39,1.56.08,1.49-.36-.35-2.24-1.93-3.86-3.62-5.29-2.09-1.32-4.59-1.77-7.03-1.25-1.44.62-2.28,1.8-3.33,2.9-2.11,2.2-2.94,5.43-1.37,8.2.56,1,1.1,2.28,2.07,2.93,2.14,1.43,4.41,2.51,6.74,3.6,1.68.79,3.22,1.69,3.89,3.46.75,1.98.88,4.03-.2,5.9-2.23,2.1-6.01,3.41-8.71,1.64-1.53-1-2.68-2.24-3.24-4-.62-.03-1.09.19-1.55.59,1.52,4.89,6.83,7.22,11.58,5.6,4-1.37,5.56-2.02,5.67-6.52Z"/>
    <path class="cls-1" d="M89.82,36.68c1.17-.21,2.01-1.27,2.81-1.86,2.61-1.94,2.09-4.32,2.81-4.76.23-.14.67-.17.91.05,1.04,1,2.32.4,3.24,1.19s-.92,6.3-2.85,8.31c-3.45,3.61-9.13,3.61-13.29,1.19-2.05-1.2-3.78-2.6-4.74-4.83-1.44-3.38-1.39-7.07-1.25-10.69.1-2.63.13-5.13.82-7.66,1.08-3.92,3.61-6.75,7.22-8.44,1.44-.68,2.67-.85,4.37-.85,5.36,0,7.72,1.9,9.73,6.92.26.64,1.49,5.18.17,5.49-1.39.33-2.73.49-4.15.61-.47.04-.96-.41-.95-.85.04-1.39-1.62-4.81-3.53-5.65-.91-.4-2.7-.46-3.5.3-4.91,4.7-5.19,11.62-3.42,17.9.65,2.31,3.04,4.05,5.58,3.6ZM83.43,35.62c-1.48-2.5-1.78-5.23-2-8.15s.42-5.84,1.45-8.66c.73-2,2.22-3.68,3.5-5.21,2.76-1.47,5.43-.87,7.41,1.34,1.05,1.17,1.48,2.69,2.3,4.12.48.44,1.75.16,2.3.06.03-2.31-.83-4.08-1.97-5.88-.89-1.41-2.03-2.45-3.83-2.71-1.48-.21-3.21-.48-4.75-.07-3.53.94-6.54,3.78-7.72,7.28-.89,2.64-.67,5.32-.9,8.05-.21,2.56-.03,4.95.44,7.44s1.8,4.35,4,5.69c2.57,1.57,5.45,2.32,8.51,1.36,1.16-.37,2.48-1.16,3.29-2.12.88-1.04,3.49-5.29,1.71-5.65-1.62-.33.25,1.5-5.05,5.17-3.41,2.35-7.47.03-8.69-2.04Z"/>
    <path class="cls-1" d="M69.35,34.89c-2.1-.7-4.22-.39-6.35-.56-1.39-.11-2.8-.3-4.12.31l-2.54,7.32c-.36,1.04-2.55-.25-4.82-.27-.47,0-.92-.28-1.04-.63-.11-.32-.12-.9.08-1.27.82-1.49,1.13-2.92,1.59-4.54,2.1-7.27,4.74-14.21,7.33-21.31.72-1.96,1.05-3.87,1.98-5.69,1.14-.8,6.23.54,6.55,1,.89,1.27.94,2.87,1.32,4.36l2.92,11.26c1.04,4.01,2.04,7.88,3.64,11.67.4.94,2.75,5.43.26,5.5s-4.39,1.14-5.11-1.32l-1.69-5.85ZM70.79,33.8c.92,2.08,1.41,4.3,2,6.57.85-.03,1.66-.08,2.36-.32.24-.13.09-.9-.07-1.17-1.31-2.26-1.94-4.67-2.77-7.13-.88-2.62-1.75-5.11-2.27-7.87-.48-2.57-1.2-5.02-1.95-7.53-.53-1.76-.68-3.7-1.33-5.45-.86-.58-2.8-1.29-3.84-.97-1.08,1.08-1.11,2.82-1.6,4.2l-6.92,19.84c-.7,2-.92,3.94-1.91,5.86l2.5.59c1.23-2.83,1.14-4.65,2.72-7.62,1.93-.75,3.76-.58,5.74-.48l5.28.26c1.01.05,1.61.21,2.06,1.22Z"/>
    <path class="cls-1" d="M69.67,28.98c-1.44.49-2.7.39-4.04.5l-5.31.45c-.43.04-.82-.18-1-.41-.2-.24-.37-.7-.24-1.13l4.33-14.86c.17-.57.24-1.14.88-1.14.39,0,.96.4,1.05.96.5,3.09,1.67,5.82,2.65,8.77l1.33,4.02c.29.86.46,1.82.34,2.83ZM64.16,17.72l-3.01,10.14,5.81-.22c.28-.01.58-.26.68-.4.16-.24-2.65-8.45-3.48-9.52Z"/>
  </g>
</svg>